<svg width="70" height="71" viewBox="0 0 70 71" fill="none" xmlns="http://www.w3.org/2000/svg">
<rect y="0.599976" width="70" height="69.8" fill="#E7E6F2"/>
<path fill-rule="evenodd" clip-rule="evenodd" d="M17.5 35.4999C17.5 28.5294 17.5 25.0441 19.1658 22.5337C19.9096 21.4127 20.8724 20.4527 21.9966 19.711C24.5142 18.0499 28.0094 18.0499 35 18.0499C41.9905 18.0499 45.4858 18.0499 48.0034 19.711C49.1276 20.4527 50.0904 21.4127 50.8342 22.5337C52.5 25.0441 52.5 28.5294 52.5 35.4999C52.5 42.4705 52.5 45.9558 50.8342 48.4661C50.0904 49.5871 49.1276 50.5472 48.0034 51.2889C45.4858 52.9499 41.9905 52.9499 35 52.9499C28.0094 52.9499 24.5142 52.9499 21.9966 51.2889C20.8724 50.5472 19.9096 49.5871 19.1658 48.4661C17.5 45.9558 17.5 42.4705 17.5 35.4999ZM44.0597 35.5007C44.0597 40.4901 40.0034 44.5348 34.9997 44.5348C29.996 44.5348 25.9397 40.4901 25.9397 35.5007C25.9397 30.5113 29.996 26.4666 34.9997 26.4666C40.0034 26.4666 44.0597 30.5113 44.0597 35.5007ZM34.9997 41.4783C38.3105 41.4783 40.9944 38.8021 40.9944 35.5007C40.9944 32.1994 38.3105 29.5231 34.9997 29.5231C31.6889 29.5231 29.005 32.1994 29.005 35.5007C29.005 38.8021 31.6889 41.4783 34.9997 41.4783ZM44.4175 28.1353C45.5932 28.1353 46.5463 27.1849 46.5463 26.0126C46.5463 24.8402 45.5932 23.8898 44.4175 23.8898C43.2418 23.8898 42.2887 24.8402 42.2887 26.0126C42.2887 27.1849 43.2418 28.1353 44.4175 28.1353Z" fill="#843C74"/>
</svg>
