<svg width="36" height="36" viewBox="0 0 36 36" fill="none" xmlns="http://www.w3.org/2000/svg">
<path fill-rule="evenodd" clip-rule="evenodd" d="M18 0C8.05888 0 0 8.05888 0 18C0 27.9411 8.05888 36 18 36C27.9411 36 36 27.9411 36 18C36 8.05888 27.9411 0 18 0ZM14.0426 8.45793C15.0666 8.41133 15.3938 8.39993 18.001 8.39993H17.998C20.6061 8.39993 20.9321 8.41133 21.9561 8.45793C22.9781 8.50473 23.6761 8.66653 24.2881 8.90393C24.9201 9.14894 25.4541 9.47694 25.9881 10.0109C26.5221 10.5445 26.8501 11.0802 27.0961 11.7116C27.3321 12.322 27.4941 13.0196 27.5421 14.0416C27.5881 15.0656 27.6001 15.3928 27.6001 18C27.6001 20.6073 27.5881 20.9337 27.5421 21.9577C27.4941 22.9793 27.3321 23.6771 27.0961 24.2877C26.8501 24.9189 26.5221 25.4545 25.9881 25.9881C25.4547 26.5221 24.9199 26.8509 24.2887 27.0961C23.6779 27.3335 22.9795 27.4953 21.9575 27.5421C20.9335 27.5887 20.6073 27.6001 17.9998 27.6001C15.3928 27.6001 15.0658 27.5887 14.0418 27.5421C13.02 27.4953 12.3222 27.3335 11.7114 27.0961C11.0804 26.8509 10.5448 26.5221 10.0114 25.9881C9.47756 25.4545 9.14955 24.9189 8.90415 24.2875C8.66695 23.6771 8.50515 22.9795 8.45815 21.9575C8.41175 20.9335 8.40015 20.6073 8.40015 18C8.40015 15.3928 8.41215 15.0654 8.45795 14.0414C8.50395 13.0198 8.66595 12.322 8.90395 11.7114C9.14995 11.0802 9.47796 10.5445 10.012 10.0109C10.5456 9.47714 11.0812 9.14913 11.7126 8.90393C12.323 8.66653 13.0206 8.50473 14.0426 8.45793Z" fill="#9CA3AF"/>
<path fill-rule="evenodd" clip-rule="evenodd" d="M17.1397 10.1298C17.307 10.1296 17.4868 10.1297 17.681 10.1297L18.0009 10.1298C20.5642 10.1298 20.868 10.139 21.8802 10.185C22.8162 10.2278 23.3242 10.3842 23.6626 10.5156C24.1106 10.6896 24.43 10.8976 24.7658 11.2337C25.1018 11.5697 25.3098 11.8897 25.4842 12.3377C25.6156 12.6757 25.7722 13.1837 25.8148 14.1197C25.8608 15.1317 25.8708 15.4357 25.8708 17.9977C25.8708 20.5598 25.8608 20.8638 25.8148 21.8758C25.772 22.8118 25.6156 23.3198 25.4842 23.6578C25.3102 24.1058 25.1018 24.4248 24.7658 24.7606C24.4298 25.0966 24.1108 25.3046 23.6626 25.4786C23.3246 25.6106 22.8162 25.7666 21.8802 25.8094C20.8682 25.8554 20.5642 25.8654 18.0009 25.8654C15.4375 25.8654 15.1337 25.8554 14.1217 25.8094C13.1857 25.7662 12.6777 25.6098 12.3391 25.4784C11.8911 25.3044 11.5711 25.0964 11.2351 24.7604C10.8991 24.4244 10.6911 24.1052 10.5167 23.657C10.3853 23.319 10.2287 22.811 10.1861 21.875C10.1401 20.863 10.1309 20.559 10.1309 17.9953C10.1309 15.4317 10.1401 15.1293 10.1861 14.1173C10.2289 13.1813 10.3853 12.6733 10.5167 12.3349C10.6907 11.8869 10.8991 11.5669 11.2351 11.2309C11.5711 10.8948 11.8911 10.6868 12.3391 10.5124C12.6775 10.3804 13.1857 10.2244 14.1217 10.1814C15.0073 10.1414 15.3505 10.1294 17.1397 10.1274V10.1298ZM23.1251 11.7237C22.4891 11.7237 21.9731 12.2391 21.9731 12.8753C21.9731 13.5113 22.4891 14.0273 23.1251 14.0273C23.7611 14.0273 24.2771 13.5113 24.2771 12.8753C24.2771 12.2393 23.7611 11.7233 23.1251 11.7233V11.7237ZM13.0707 17.9998C13.0707 15.2772 15.2781 13.0698 18.0007 13.0698H18.0005C20.7231 13.0698 22.93 15.2772 22.93 17.9998C22.93 20.7224 20.7233 22.9289 18.0007 22.9289C15.2781 22.9289 13.0707 20.7224 13.0707 17.9998Z" fill="#9CA3AF"/>
<path fill-rule="evenodd" clip-rule="evenodd" d="M18.0008 14.8003C19.768 14.8003 21.2008 16.2329 21.2008 18.0003C21.2008 19.7675 19.768 21.2004 18.0008 21.2004C16.2334 21.2004 14.8008 19.7675 14.8008 18.0003C14.8008 16.2329 16.2334 14.8003 18.0008 14.8003V14.8003Z" fill="#9CA3AF"/>
</svg>
