<svg width="70" height="71" viewBox="0 0 70 71" fill="none" xmlns="http://www.w3.org/2000/svg">
<rect y="0.400024" width="70" height="69.8" fill="#E7E6F2"/>
<path d="M17.5 22.5419C17.5 21.4227 17.8942 20.4995 18.6825 19.7721C19.4707 19.0446 20.4955 18.6809 21.7568 18.6809C22.9955 18.6809 23.9978 19.039 24.7635 19.7553C25.5518 20.4939 25.946 21.4563 25.946 22.6426C25.946 23.717 25.5631 24.6123 24.7973 25.3285C24.0091 26.0672 22.973 26.4365 21.6892 26.4365H21.6554C20.4167 26.4365 19.4145 26.0672 18.6487 25.3285C17.8829 24.5899 17.5 23.661 17.5 22.5419ZM17.9392 51.919V29.4917H25.4392V51.919H17.9392ZM29.5946 51.919H37.0946V39.396C37.0946 38.6125 37.1847 38.0082 37.3649 37.583C37.6802 36.822 38.1588 36.1784 38.8007 35.6525C39.4426 35.1265 40.2478 34.8635 41.2162 34.8635C43.7388 34.8635 45 36.5534 45 39.9331V51.919H52.5V39.0602C52.5 35.7476 51.7118 33.2352 50.1352 31.5229C48.5586 29.8106 46.4753 28.9545 43.8852 28.9545C40.9798 28.9545 38.7162 30.1967 37.0946 32.6812V32.7483H37.0608L37.0946 32.6812V29.4917H29.5946C29.6397 30.2079 29.6622 32.435 29.6622 36.1729C29.6622 39.9107 29.6397 45.1594 29.5946 51.919Z" fill="#843C74"/>
</svg>
