<svg width="70" height="71" viewBox="0 0 70 71" fill="none" xmlns="http://www.w3.org/2000/svg">
<rect y="0.800049" width="70" height="69.8" fill="#E7E6F2"/>
<path d="M40.8859 21.5489V21.5426H42.527L43.1267 21.662C43.5264 21.7396 43.8894 21.8412 44.2155 21.9669C44.5416 22.0926 44.8572 22.2392 45.1623 22.4068C45.4674 22.5744 45.7441 22.7452 45.9923 22.9191C46.2385 23.0909 46.4594 23.2732 46.6551 23.4659C46.8486 23.6607 47.1506 23.711 47.5608 23.6167C47.9711 23.5225 48.413 23.3915 48.8864 23.2239C49.3598 23.0563 49.8279 22.8678 50.2908 22.6582C50.7537 22.4487 51.0356 22.3157 51.1366 22.2591C51.2355 22.2005 51.2881 22.1691 51.2944 22.1648L51.3007 22.1554L51.3322 22.1397L51.3638 22.124L51.3954 22.1083L51.4269 22.0926L51.4332 22.0831L51.4427 22.0768L51.4522 22.0706L51.4585 22.0611L51.4901 22.0517L51.5216 22.0454L51.5153 22.0926L51.5058 22.1397L51.4901 22.1868L51.4743 22.234L51.4585 22.2654L51.4427 22.2968L51.4269 22.344C51.4164 22.3754 51.4059 22.4173 51.3954 22.4697C51.3849 22.5221 51.2849 22.7316 51.0956 23.0982C50.9062 23.4649 50.6695 23.8367 50.3855 24.2138C50.1014 24.591 49.8468 24.8759 49.6217 25.0686C49.3945 25.2635 49.2441 25.3996 49.1704 25.4772C49.0968 25.5568 49.0074 25.6301 48.9021 25.6972L48.7443 25.8009L48.7128 25.8166L48.6812 25.8323L48.6749 25.8417L48.6654 25.848L48.656 25.8543L48.6497 25.8637L48.6181 25.8794L48.5865 25.8951L48.5803 25.9046L48.5708 25.9109L48.5613 25.9171L48.555 25.9266L48.5487 25.936L48.5392 25.9423L48.5297 25.9486L48.5234 25.958H48.6812L49.5649 25.7694C50.154 25.6437 50.7168 25.4919 51.2533 25.3138L52.1055 25.0309L52.2001 24.9995L52.2475 24.9838L52.279 24.9681L52.3106 24.9524L52.3422 24.9366L52.3737 24.9209L52.4368 24.9115L52.5 24.9052V24.9681L52.4842 24.9744L52.4684 24.9838L52.4621 24.9932L52.4526 24.9995L52.4432 25.0058L52.4368 25.0152L52.4306 25.0246L52.4211 25.0309L52.4116 25.0372L52.4053 25.0466L52.399 25.0561L52.3895 25.0623L52.3737 25.0938L52.3579 25.1252L52.3485 25.1315C52.3443 25.1378 52.2107 25.3158 51.9477 25.6657C51.6847 26.0177 51.5427 26.1958 51.5216 26.2C51.5006 26.2063 51.4711 26.2377 51.4332 26.2943C51.3975 26.3529 51.1744 26.5865 50.7642 26.9951C50.3539 27.4036 49.9521 27.7671 49.5586 28.0856C49.1631 28.4061 48.9632 28.8 48.959 29.2672C48.9527 29.7323 48.9285 30.2582 48.8864 30.8448C48.8443 31.4314 48.7654 32.0652 48.6497 32.7461C48.534 33.427 48.3551 34.1969 48.1131 35.0559C47.8712 35.9149 47.5766 36.7529 47.2295 37.57C46.8823 38.3871 46.5194 39.1204 46.1406 39.7699C45.7619 40.4193 45.4148 40.9693 45.0992 41.4197C44.7836 41.8702 44.4627 42.2944 44.1366 42.6925C43.8105 43.0906 43.3981 43.5389 42.8995 44.0375C42.3987 44.5341 42.1252 44.8065 42.0789 44.8546C42.0305 44.9007 41.8243 45.0725 41.4603 45.37C41.0984 45.6696 40.7092 45.9692 40.2926 46.2688C39.8781 46.5663 39.4973 46.8146 39.1501 47.0136C38.8029 47.2126 38.3843 47.44 37.894 47.6956C37.4059 47.9533 36.8778 48.1921 36.3097 48.4121C35.7416 48.6321 35.142 48.8363 34.5108 49.0249C33.8796 49.2135 33.2694 49.3601 32.6803 49.4649C32.0912 49.5696 31.4232 49.6587 30.6763 49.732L29.5559 49.842V49.8577H27.5045V49.842L27.2362 49.8263C27.0574 49.8158 26.9101 49.8053 26.7944 49.7948C26.6787 49.7844 26.2421 49.7267 25.4846 49.622C24.7272 49.5173 24.1328 49.4125 23.7015 49.3077C23.2702 49.203 22.6285 49.0039 21.7763 48.7106C20.9242 48.4173 20.1952 48.1209 19.5892 47.8213C18.9854 47.5238 18.6067 47.3352 18.4531 47.2556C18.3016 47.1781 18.1312 47.0817 17.9418 46.9665L17.6578 46.7936L17.6515 46.7842L17.642 46.7779L17.6325 46.7716L17.6262 46.7622L17.5946 46.7465L17.5631 46.7308L17.5568 46.7214L17.5473 46.7151L17.5378 46.7088L17.5315 46.6994L17.5252 46.6899L17.5157 46.6836H17.5V46.6208L17.5315 46.6271L17.5631 46.6365L17.7051 46.6522C17.7998 46.6627 18.0575 46.6784 18.4783 46.6994C18.8991 46.7203 19.3462 46.7203 19.8196 46.6994C20.293 46.6784 20.777 46.6313 21.2714 46.5579C21.7658 46.4846 22.3497 46.3589 23.023 46.1808C23.6963 46.0027 24.3148 45.7911 24.8787 45.546C25.4405 45.2988 25.8402 45.1144 26.078 44.9929C26.3136 44.8735 26.6734 44.6514 27.1573 44.3267L27.8832 43.8396L27.8895 43.8301L27.899 43.8239L27.9085 43.8176L27.9148 43.8081L27.9211 43.7987L27.9305 43.7924L27.94 43.7861L27.9463 43.7767L27.9779 43.7673L28.0094 43.761L28.0157 43.7296L28.0252 43.6981L28.0347 43.6919L28.041 43.6824L27.7885 43.6667C27.6202 43.6563 27.4571 43.6458 27.2993 43.6353C27.1415 43.6248 26.8943 43.5777 26.5577 43.4939C26.2211 43.4101 25.8581 43.2844 25.4689 43.1168C25.0796 42.9492 24.7009 42.7501 24.3327 42.5197C23.9645 42.2892 23.6983 42.0975 23.5342 41.9446C23.3722 41.7937 23.1618 41.58 22.903 41.3035C22.6464 41.0248 22.4233 40.7388 22.234 40.4455C22.0446 40.1522 21.8637 39.8138 21.6912 39.4305L21.4292 38.8585L21.4134 38.8114L21.3976 38.7642L21.3882 38.7328L21.3818 38.7014L21.4292 38.7076L21.4765 38.7171L21.8237 38.7642C22.0551 38.7956 22.4181 38.8061 22.9125 38.7956C23.407 38.7852 23.7488 38.7642 23.9382 38.7328C24.1276 38.7014 24.2433 38.6804 24.2854 38.6699L24.3485 38.6542L24.4274 38.6385L24.5063 38.6228L24.5126 38.6134L24.5221 38.6071L24.5316 38.6008L24.5378 38.5914L24.4747 38.5757L24.4116 38.5599L24.3485 38.5442L24.2854 38.5285L24.2222 38.5128C24.1802 38.5023 24.1065 38.4814 24.0013 38.45C23.8961 38.4185 23.6121 38.3033 23.1492 38.1043C22.6863 37.9052 22.3181 37.7114 22.0446 37.5229C21.7704 37.3338 21.5089 37.127 21.2619 36.9038C21.0157 36.6775 20.7454 36.3863 20.4508 36.0301C20.1563 35.674 19.8933 35.2602 19.6618 34.7888C19.4304 34.3174 19.2568 33.867 19.1411 33.4375C19.0258 33.0105 18.9498 32.574 18.9139 32.1333L18.857 31.4733L18.8886 31.4796L18.9202 31.489L18.9517 31.5047L18.9833 31.5205L19.0148 31.5362L19.0464 31.5519L19.5356 31.7719C19.8617 31.9185 20.2667 32.0442 20.7506 32.149C21.2346 32.2537 21.5239 32.3114 21.6185 32.3218L21.7606 32.3375H22.0446L22.0383 32.3281L22.0288 32.3218L22.0194 32.3155L22.013 32.3061L22.0068 32.2967L21.9973 32.2904L21.9878 32.2841L21.9815 32.2747L21.9499 32.259L21.9184 32.2433L21.9121 32.2338L21.9026 32.2275L21.8931 32.2213L21.8868 32.2118L21.8552 32.1961L21.8237 32.1804L21.8174 32.171C21.8111 32.1668 21.7206 32.0997 21.546 31.9698C21.3734 31.8379 21.1925 31.6671 21.0031 31.4576C20.8138 31.2481 20.6244 31.0281 20.435 30.7976C20.2453 30.5667 20.0764 30.3195 19.9301 30.0591C19.7828 29.7973 19.6271 29.4641 19.463 29.0598C19.301 28.6575 19.1779 28.2521 19.0937 27.8436C19.0096 27.435 18.9623 27.0317 18.9517 26.6337C18.9412 26.2356 18.9517 25.8951 18.9833 25.6123C19.0148 25.3295 19.078 25.01 19.1726 24.6538C19.2673 24.2977 19.4041 23.9205 19.5829 23.5225L19.8512 22.9254L19.867 22.8782L19.8827 22.8311L19.8922 22.8248L19.8985 22.8154L19.9048 22.8059L19.9143 22.7997L19.9238 22.8059L19.9301 22.8154L19.9364 22.8248L19.9459 22.8311L19.9554 22.8374L19.9616 22.8468L19.968 22.8562L19.9774 22.8625L19.9932 22.8939L20.009 22.9254L20.0185 22.9316L20.0248 22.9411L20.4508 23.4125C20.7349 23.7267 21.0715 24.0777 21.4607 24.4652C21.85 24.8528 22.0657 25.054 22.1077 25.0686C22.1498 25.0854 22.2024 25.1336 22.2655 25.2132C22.3286 25.2907 22.5391 25.4761 22.8967 25.7694C23.2544 26.0627 23.7226 26.4032 24.3011 26.7908C24.8798 27.1784 25.5215 27.5607 26.2263 27.9379C26.9312 28.315 27.6886 28.6554 28.4986 28.9592C29.3087 29.263 29.8767 29.462 30.2029 29.5563C30.529 29.6506 31.0865 29.771 31.8755 29.9177C32.6645 30.0644 33.2589 30.1587 33.6587 30.2005C34.0584 30.2424 34.332 30.2665 34.4792 30.2728L34.7001 30.2791L34.6939 30.232L34.6844 30.1848L34.6213 29.792C34.5792 29.5301 34.5581 29.1635 34.5581 28.6921C34.5581 28.2207 34.595 27.786 34.6686 27.3879C34.7423 26.9898 34.8527 26.5865 35 26.178C35.1473 25.7694 35.2914 25.4415 35.4323 25.1943C35.5754 24.9492 35.7627 24.6695 35.9941 24.3553C36.2256 24.041 36.5254 23.7163 36.8936 23.381C37.2618 23.0458 37.6826 22.7473 38.156 22.4854C38.6294 22.2235 39.066 22.0245 39.4657 21.8883C39.8655 21.7521 40.2021 21.6631 40.4756 21.6212C40.7492 21.5793 40.8859 21.5552 40.8859 21.5489Z" fill="#843C74"/>
</svg>
