<svg width="70" height="70" viewBox="0 0 70 70" fill="none" xmlns="http://www.w3.org/2000/svg">
<rect y="0.199951" width="70" height="69.8" fill="#E7E6F2"/>
<path d="M35.8529 48.6333L27.9542 48.4861C25.3968 48.4348 22.833 48.5372 20.3257 48.0058C16.5115 47.2118 16.2413 43.3187 15.9586 40.0532C15.569 35.4622 15.7198 30.7879 16.455 26.2352C16.8701 23.6807 18.5035 22.1564 21.0295 21.9905C29.5565 21.3885 38.1403 21.4599 46.6485 21.7407C47.547 21.7665 48.4518 21.9072 49.3378 22.0674C53.7115 22.8486 53.8181 27.2603 54.1017 30.9742C54.3844 34.7264 54.265 38.4978 53.7246 42.2244C53.291 45.31 52.4615 47.8975 48.9608 48.1473C44.5746 48.474 40.289 48.7369 35.8905 48.6532C35.8907 48.6333 35.8654 48.6333 35.8529 48.6333ZM31.2092 40.8216C34.5146 38.8877 37.7569 36.9861 41.0434 35.0652C37.7318 33.1313 34.4957 31.2297 31.2092 29.3088V40.8216Z" fill="#843C74"/>
</svg>
