<svg width="36" height="36" viewBox="0 0 36 36" fill="none" xmlns="http://www.w3.org/2000/svg">
<path fill-rule="evenodd" clip-rule="evenodd" d="M18 0C8.05888 0 0 8.05888 0 18C0 27.9411 8.05888 36 18 36C27.9411 36 36 27.9411 36 18C36 8.05888 27.9411 0 18 0ZM25.5013 11.8121C26.3275 12.0388 26.9781 12.7067 27.1989 13.555C27.6001 15.0924 27.6001 18.3001 27.6001 18.3001C27.6001 18.3001 27.6001 21.5077 27.1989 23.0452C26.9781 23.8934 26.3275 24.5614 25.5013 24.7882C24.0042 25.2001 18.0001 25.2001 18.0001 25.2001C18.0001 25.2001 11.9961 25.2001 10.4988 24.7882C9.67269 24.5614 9.02207 23.8934 8.80127 23.0452C8.40015 21.5077 8.40015 18.3001 8.40015 18.3001C8.40015 18.3001 8.40015 15.0924 8.80127 13.555C9.02207 12.7067 9.67269 12.0388 10.4988 11.8121C11.9961 11.4001 18.0001 11.4001 18.0001 11.4001C18.0001 11.4001 24.0042 11.4001 25.5013 11.8121Z" fill="#9CA3AF"/>
<path fill-rule="evenodd" clip-rule="evenodd" d="M16.2002 21.6001V15.6001L21.0002 18.6002L16.2002 21.6001Z" fill="#9CA3AF"/>
</svg>
