<svg width="37" height="36" viewBox="0 0 37 36" fill="none" xmlns="http://www.w3.org/2000/svg">
<rect x="0.5" y="0.000244141" width="36" height="36" rx="8" fill="#E7E6F2"/>
<path fill-rule="evenodd" clip-rule="evenodd" d="M9.5 18.0002C9.5 14.4051 9.5 12.6075 10.3567 11.3128C10.7392 10.7346 11.2344 10.2395 11.8126 9.85694C13.1073 9.00024 14.9049 9.00024 18.5 9.00024C22.0951 9.00024 23.8927 9.00024 25.1874 9.85694C25.7656 10.2395 26.2608 10.7346 26.6433 11.3128C27.5 12.6075 27.5 14.4051 27.5 18.0002C27.5 21.5954 27.5 23.393 26.6433 24.6877C26.2608 25.2659 25.7656 25.761 25.1874 26.1436C23.8927 27.0002 22.0951 27.0002 18.5 27.0002C14.9049 27.0002 13.1073 27.0002 11.8126 26.1436C11.2344 25.761 10.7392 25.2659 10.3567 24.6877C9.5 23.393 9.5 21.5954 9.5 18.0002ZM23.1593 18.0005C23.1593 20.5738 21.0732 22.6599 18.4998 22.6599C15.9265 22.6599 13.8404 20.5738 13.8404 18.0005C13.8404 15.4272 15.9265 13.3411 18.4998 13.3411C21.0732 13.3411 23.1593 15.4272 23.1593 18.0005ZM18.4998 21.0835C20.2025 21.0835 21.5828 19.7032 21.5828 18.0005C21.5828 16.2978 20.2025 14.9175 18.4998 14.9175C16.7971 14.9175 15.4168 16.2978 15.4168 18.0005C15.4168 19.7032 16.7971 21.0835 18.4998 21.0835ZM23.3433 14.2018C23.9479 14.2018 24.4381 13.7116 24.4381 13.107C24.4381 12.5023 23.9479 12.0121 23.3433 12.0121C22.7386 12.0121 22.2485 12.5023 22.2485 13.107C22.2485 13.7116 22.7386 14.2018 23.3433 14.2018Z" fill="#843C74"/>
</svg>
