<svg width="37" height="36" viewBox="0 0 37 36" fill="none" xmlns="http://www.w3.org/2000/svg">
<rect x="0.5" y="0.000244141" width="36" height="36" rx="8" fill="#E7E6F2"/>
<path d="M9.5 11.4202C9.5 10.843 9.70271 10.3668 10.1081 9.9916C10.5135 9.61642 11.0405 9.42883 11.6892 9.42883C12.3263 9.42883 12.8417 9.61353 13.2355 9.98295C13.6409 10.3639 13.8436 10.8603 13.8436 11.4721C13.8436 12.0262 13.6467 12.488 13.2529 12.8574C12.8475 13.2384 12.3147 13.4288 11.6544 13.4288H11.6371C11 13.4288 10.4846 13.2384 10.0907 12.8574C9.69691 12.4765 9.5 11.9974 9.5 11.4202ZM9.72587 26.5717V15.0046H13.583V26.5717H9.72587ZM15.7201 26.5717H19.5772V20.1128C19.5772 19.7088 19.6236 19.3971 19.7162 19.1777C19.8784 18.7852 20.1245 18.4533 20.4546 18.1821C20.7847 17.9108 21.1988 17.7752 21.6969 17.7752C22.9942 17.7752 23.6429 18.6467 23.6429 20.3899V26.5717H27.5V19.9397C27.5 18.2311 27.0946 16.9353 26.2838 16.0522C25.473 15.1691 24.4015 14.7275 23.0695 14.7275C21.5753 14.7275 20.4112 15.3682 19.5772 16.6496V16.6842H19.5598L19.5772 16.6496V15.0046H15.7201C15.7432 15.374 15.7548 16.5226 15.7548 18.4505C15.7548 20.3783 15.7432 23.0854 15.7201 26.5717Z" fill="#843C74"/>
</svg>
