<svg width="37" height="36" viewBox="0 0 37 36" fill="none" xmlns="http://www.w3.org/2000/svg">
<rect x="0.5" y="0.000244141" width="36" height="36" rx="8" fill="#E7E6F2"/>
<path d="M21.527 10.7016V10.6984H22.371L22.6794 10.76C22.885 10.7999 23.0717 10.8523 23.2394 10.9172C23.4071 10.982 23.5694 11.0577 23.7263 11.1441C23.8832 11.2305 24.0255 11.3186 24.1532 11.4083C24.2798 11.4969 24.3934 11.5909 24.494 11.6903C24.5936 11.7908 24.7488 11.8167 24.9598 11.7681C25.1708 11.7195 25.3981 11.652 25.6415 11.5655C25.885 11.4791 26.1258 11.3818 26.3638 11.2738C26.6019 11.1657 26.7469 11.0971 26.7988 11.0679C26.8497 11.0377 26.8767 11.0215 26.88 11.0193L26.8832 11.0144L26.8994 11.0063L26.9157 10.9982L26.9319 10.9901L26.9481 10.982L26.9514 10.9771L26.9562 10.9739L26.9611 10.9707L26.9644 10.9658L26.9806 10.9609L26.9968 10.9577L26.9936 10.982L26.9887 11.0063L26.9806 11.0306L26.9725 11.0549L26.9644 11.0712L26.9562 11.0874L26.9481 11.1117C26.9427 11.1279 26.9373 11.1495 26.9319 11.1765C26.9265 11.2035 26.8751 11.3116 26.7777 11.5007C26.6803 11.6898 26.5586 11.8816 26.4125 12.0761C26.2664 12.2706 26.1355 12.4175 26.0197 12.5169C25.9029 12.6174 25.8255 12.6877 25.7876 12.7277C25.7498 12.7687 25.7038 12.8065 25.6497 12.8411L25.5685 12.8946L25.5523 12.9027L25.536 12.9108L25.5328 12.9157L25.5279 12.9189L25.5231 12.9222L25.5198 12.927L25.5036 12.9351L25.4873 12.9432L25.4841 12.9481L25.4792 12.9513L25.4744 12.9546L25.4711 12.9594L25.4679 12.9643L25.463 12.9675L25.4581 12.9708L25.4549 12.9756H25.536L25.9905 12.8784C26.2935 12.8136 26.5829 12.7352 26.8589 12.6434L27.2971 12.4975L27.3458 12.4813L27.3701 12.4732L27.3864 12.4651L27.4026 12.457L27.4188 12.4489L27.435 12.4408L27.4675 12.4359L27.5 12.4327V12.4651L27.4919 12.4683L27.4837 12.4732L27.4805 12.478L27.4756 12.4813L27.4708 12.4845L27.4675 12.4894L27.4643 12.4943L27.4594 12.4975L27.4545 12.5007L27.4513 12.5056L27.448 12.5105L27.4432 12.5137L27.435 12.5299L27.4269 12.5461L27.4221 12.5494C27.4199 12.5526 27.3512 12.6444 27.2159 12.8249C27.0807 13.0064 27.0076 13.0983 26.9968 13.1005C26.986 13.1037 26.9708 13.1199 26.9514 13.1491C26.933 13.1793 26.8183 13.2998 26.6073 13.5105C26.3963 13.7212 26.1896 13.9087 25.9873 14.073C25.7838 14.2383 25.681 14.4414 25.6789 14.6824C25.6756 14.9223 25.6632 15.1935 25.6415 15.4961C25.6199 15.7986 25.5793 16.1255 25.5198 16.4767C25.4603 16.8278 25.3683 17.225 25.2439 17.668C25.1195 18.111 24.968 18.5432 24.7894 18.9647C24.6109 19.3861 24.4242 19.7643 24.2295 20.0992C24.0347 20.4342 23.8561 20.7179 23.6938 20.9502C23.5315 21.1825 23.3665 21.4013 23.1988 21.6066C23.0311 21.8119 22.819 22.0432 22.5626 22.3003C22.305 22.5564 22.1644 22.6969 22.1406 22.7218C22.1157 22.7455 22.0096 22.8342 21.8224 22.9876C21.6363 23.1421 21.4361 23.2966 21.2219 23.4511C21.0087 23.6046 20.8129 23.7326 20.6343 23.8353C20.4558 23.9379 20.2405 24.0552 19.9883 24.187C19.7373 24.3199 19.4657 24.4431 19.1735 24.5566C18.8814 24.67 18.573 24.7754 18.2484 24.8726C17.9238 24.9699 17.61 25.0455 17.307 25.0995C17.004 25.1536 16.6605 25.1995 16.2763 25.2373L15.7001 25.294V25.3021H14.6451V25.294L14.5072 25.2859C14.4152 25.2805 14.3395 25.2751 14.28 25.2697C14.2204 25.2643 13.9959 25.2346 13.6064 25.1806C13.2168 25.1266 12.9112 25.0725 12.6893 25.0185C12.4675 24.9645 12.1375 24.8618 11.6992 24.7105C11.261 24.5593 10.8861 24.4064 10.5745 24.2518C10.2639 24.0984 10.0691 24.0011 9.99014 23.9601C9.91223 23.9201 9.82459 23.8704 9.7272 23.811L9.58112 23.7218L9.57789 23.717L9.57301 23.7137L9.56814 23.7105L9.56489 23.7056L9.54866 23.6975L9.53243 23.6894L9.5292 23.6845L9.52432 23.6813L9.51945 23.6781L9.5162 23.6732L9.51297 23.6683L9.50808 23.6651H9.49997V23.6327L9.5162 23.6359L9.53243 23.6408L9.60547 23.6489C9.65416 23.6543 9.78672 23.6624 10.0031 23.6732C10.2195 23.684 10.4495 23.684 10.6929 23.6732C10.9364 23.6624 11.1853 23.6381 11.4396 23.6003C11.6938 23.5624 11.9941 23.4976 12.3404 23.4058C12.6866 23.3139 13.0048 23.2048 13.2948 23.0783C13.5837 22.9509 13.7892 22.8558 13.9115 22.7931C14.0327 22.7315 14.2177 22.6169 14.4666 22.4495L14.8399 22.1982L14.8432 22.1934L14.848 22.1901L14.8529 22.1869L14.8561 22.182L14.8594 22.1772L14.8643 22.1739L14.8691 22.1707L14.8724 22.1658L14.8886 22.161L14.9048 22.1577L14.9081 22.1415L14.913 22.1253L14.9178 22.1221L14.9211 22.1172L14.7912 22.1091C14.7047 22.1037 14.6208 22.0983 14.5396 22.0929C14.4585 22.0875 14.3314 22.0632 14.1582 22.0199C13.9851 21.9767 13.7984 21.9119 13.5983 21.8254C13.3981 21.739 13.2033 21.6363 13.0139 21.5175C12.8246 21.3986 12.6877 21.2997 12.6033 21.2209C12.52 21.143 12.4118 21.0328 12.2787 20.8902C12.1467 20.7465 12.032 20.599 11.9346 20.4477C11.8372 20.2964 11.7442 20.1219 11.6554 19.9242L11.5207 19.6292L11.5126 19.6049L11.5045 19.5806L11.4996 19.5644L11.4964 19.5482L11.5207 19.5514L11.5451 19.5563L11.7236 19.5806C11.8426 19.5968 12.0293 19.6022 12.2836 19.5968C12.5378 19.5914 12.7137 19.5806 12.8111 19.5644C12.9084 19.5482 12.968 19.5373 12.9896 19.5319L13.0221 19.5238L13.0626 19.5157L13.1032 19.5076L13.1065 19.5028L13.1113 19.4995L13.1162 19.4963L13.1194 19.4914L13.087 19.4833L13.0545 19.4752L13.0221 19.4671L12.9896 19.459L12.9571 19.4509C12.9355 19.4455 12.8976 19.4347 12.8435 19.4185C12.7894 19.4023 12.6433 19.3428 12.4053 19.2402C12.1672 19.1375 11.9779 19.0376 11.8372 18.9403C11.6962 18.8428 11.5617 18.7361 11.4347 18.621C11.3081 18.5043 11.1691 18.3541 11.0176 18.1704C10.8661 17.9868 10.7308 17.7733 10.6118 17.5302C10.4928 17.2871 10.4035 17.0548 10.344 16.8332C10.2847 16.613 10.2456 16.3879 10.2271 16.1606L10.1979 15.8202L10.2141 15.8235L10.2304 15.8283L10.2466 15.8364L10.2628 15.8445L10.279 15.8526L10.2953 15.8607L10.5469 15.9742C10.7146 16.0498 10.9229 16.1147 11.1717 16.1687C11.4206 16.2227 11.5694 16.2525 11.6181 16.2578L11.6911 16.266H11.8372L11.834 16.2611L11.8291 16.2578L11.8242 16.2546L11.821 16.2497L11.8177 16.2449L11.8129 16.2416L11.808 16.2384L11.8047 16.2335L11.7885 16.2254L11.7723 16.2173L11.7691 16.2125L11.7642 16.2092L11.7593 16.206L11.7561 16.2011L11.7398 16.193L11.7236 16.1849L11.7204 16.18C11.7171 16.1779 11.6706 16.1433 11.5808 16.0763C11.492 16.0082 11.399 15.9202 11.3016 15.8121C11.2042 15.7041 11.1068 15.5906 11.0094 15.4717C10.9119 15.3526 10.825 15.2252 10.7497 15.0908C10.674 14.9558 10.5939 14.784 10.5095 14.5754C10.4262 14.3679 10.3629 14.1589 10.3196 13.9482C10.2764 13.7374 10.252 13.5294 10.2466 13.3241C10.2412 13.1188 10.2466 12.9432 10.2628 12.7974C10.279 12.6515 10.3115 12.4867 10.3602 12.303C10.4089 12.1193 10.4792 11.9248 10.5712 11.7195L10.7092 11.4115L10.7173 11.3872L10.7254 11.3629L10.7303 11.3597L10.7335 11.3548L10.7368 11.3499L10.7416 11.3467L10.7465 11.3499L10.7497 11.3548L10.753 11.3597L10.7579 11.3629L10.7627 11.3662L10.766 11.371L10.7692 11.3759L10.7741 11.3791L10.7822 11.3953L10.7903 11.4115L10.7952 11.4148L10.7984 11.4196L11.0176 11.6628C11.1636 11.8248 11.3368 12.0058 11.5369 12.2057C11.7371 12.4056 11.848 12.5094 11.8697 12.5169C11.8913 12.5256 11.9184 12.5504 11.9508 12.5915C11.9833 12.6315 12.0915 12.7271 12.2754 12.8784C12.4594 13.0297 12.7002 13.2053 12.9977 13.4052C13.2953 13.6051 13.6253 13.8023 13.9878 13.9968C14.3503 14.1913 14.7398 14.3669 15.1564 14.5235C15.573 14.6802 15.8652 14.7829 16.0329 14.8315C16.2006 14.8801 16.4873 14.9423 16.8931 15.0179C17.2989 15.0935 17.6046 15.1422 17.8102 15.1638C18.0158 15.1854 18.1564 15.1978 18.2322 15.2011L18.3458 15.2043L18.3425 15.18L18.3377 15.1557L18.3052 14.9531C18.2836 14.818 18.2727 14.6289 18.2727 14.3858C18.2727 14.1427 18.2917 13.9184 18.3295 13.7131C18.3674 13.5078 18.4242 13.2998 18.5 13.0891C18.5757 12.8784 18.6498 12.7093 18.7223 12.5818C18.7959 12.4554 18.8922 12.3111 19.0112 12.149C19.1303 11.9869 19.2845 11.8195 19.4738 11.6466C19.6632 11.4737 19.8796 11.3197 20.1231 11.1846C20.3665 11.0496 20.5911 10.9469 20.7966 10.8767C21.0022 10.8064 21.1754 10.7605 21.316 10.7389C21.4567 10.7173 21.527 10.7048 21.527 10.7016Z" fill="#843C74"/>
</svg>
