<svg width="37" height="36" viewBox="0 0 37 36" fill="none" xmlns="http://www.w3.org/2000/svg">
<rect x="0.5" y="0.000244141" width="36" height="36" rx="8" fill="#E7E6F2"/>
<path d="M18.9386 24.9802L14.8764 24.9043C13.5612 24.8778 12.2427 24.9306 10.9532 24.6565C8.99165 24.247 8.85268 22.2391 8.70727 20.5549C8.50691 18.187 8.58448 15.7762 8.96258 13.4281C9.17604 12.1106 10.0161 11.3244 11.3152 11.2389C15.7005 10.9284 20.115 10.9652 24.4906 11.1101C24.9528 11.1233 25.4181 11.1959 25.8737 11.2785C28.1231 11.6814 28.1779 13.9568 28.3237 15.8723C28.4691 17.8075 28.4077 19.7527 28.1298 21.6747C27.9068 23.2661 27.4802 24.6007 25.6798 24.7295C23.4241 24.898 21.2201 25.0336 18.958 24.9904C18.9581 24.9802 18.9451 24.9802 18.9386 24.9802ZM16.5505 20.9512C18.2504 19.9538 19.9178 18.973 21.608 17.9823C19.9049 16.9849 18.2406 16.0041 16.5505 15.0133V20.9512Z" fill="#843C74"/>
</svg>
